<?xml version="1.0" encoding="UTF-8"?>
<svg width="165px" height="182px" viewBox="0 0 165 182" version="1.1" xmlns="http://www.w3.org/2000/svg" xmlns:xlink="http://www.w3.org/1999/xlink">
    <title>custom.apple.keynote</title>
    <g id="custom.apple.keynote" stroke="none" fill="none" transform="translate(0.0789, 0.8187)" fill-opacity="0.85" fill-rule="nonzero">
        <path d="M37.1278,61.8033 L126.721,61.8033 C129.727,61.8033 132.09,64.1669 132.09,67.2762 C132.09,70.3029 129.727,72.6665 126.721,72.6665 L37.1278,72.6665 C34.1011,72.6665 31.7586,70.3029 31.7586,67.2762 C31.7586,64.1669 34.1011,61.8033 37.1278,61.8033 Z M81.9973,51.6719 C68.3768,51.6719 58.4522,42.0177 58.4522,31.0963 C58.4522,18.9709 69.4561,10.1255 81.9973,10.1255 C93.9156,10.1255 105.376,18.3689 105.376,31.3665 C105.376,42.1423 95.4512,51.6719 81.9973,51.6719 Z M17.1864,87.7343 L147.083,87.7343 C159.681,87.7343 166.402,79.4759 163.663,65.8 L154.298,19.7317 C151.89,7.57222 143.446,0 131.206,0 L33.0629,0 C20.8231,0 12.3789,7.57222 9.99214,19.7317 L0.627416,65.8 C-2.13317,79.4759 4.58784,87.7343 17.1864,87.7343 Z M73.96,170.665 L90.309,170.665 L90.309,84.9315 L73.96,84.9315 L73.96,170.665 Z M48.185,180.278 L116.084,180.278 C120.539,180.278 124.248,176.465 124.248,172.114 C124.248,167.638 120.539,163.95 116.084,163.95 L48.185,163.95 C43.7302,163.95 40.021,167.638 40.021,172.114 C40.021,176.465 43.7302,180.278 48.185,180.278 Z" id="Shape" fill="#FFFFFF"></path>
    </g>
</svg>